# xmcd CD database file
#
# Track frame offsets:
#	150
#	13562
#	30027
#	47700
#	61615
#	80240
#	95979
#	110885
#	127877
#	139030
#
# Disc length: 2109 seconds
#
# Revision: 4
# Processed by: cddbd v1.5.2PL0 Copyright (c) Steve Scherf et al.
# Submitted via: CDex 1.51
#
DISCID=7e083b0a
DTITLE=Instumental Anthology - Peaceful Christmas
DYEAR=1993
DGENRE=Christmas
TTITLE0=Angels we have heard on high
TTITLE1=O Little Town of Bethlehem
TTITLE2=It came upon a midnight clear
TTITLE3=God rest ye merry gentlemen
TTITLE4=What child is this?
TTITLE5=Medley: Here we come a-wassailing - I saw three ships - Fum, fum, fum
TTITLE6=Silent night
TTITLE7=The first noel
TTITLE8=Away in a manger
TTITLE9=O Holy Night
EXTD=YEAR: 1993
EXTT0=
EXTT1=
EXTT2=
EXTT3=
EXTT4=
EXTT5=
EXTT6=
EXTT7=
EXTT8=
EXTT9=
PLAYORDER=
